<?xml version="1.0" standalone="no"?>
<!DOCTYPE svg PUBLIC "-//W3C//DTD SVG 20010904//EN"
 "http://www.w3.org/TR/2001/REC-SVG-20010904/DTD/svg10.dtd">
<svg version="1.0" xmlns="http://www.w3.org/2000/svg"
 width="768.000000pt" height="768.000000pt" viewBox="0 0 768.000000 768.000000"
 preserveAspectRatio="xMidYMid meet">
<metadata>
Created by potrace 1.10, written by Peter Selinger 2001-2011
</metadata>
<g transform="translate(0.000000,768.000000) scale(0.100000,-0.100000)"
fill="#000000" stroke="none">
<path d="M5907 6768 c-7 -4 -39 -8 -72 -8 l-59 0 -61 -64 c-33 -35 -80 -74
-104 -87 -50 -28 -106 -107 -117 -166 -4 -21 -10 -42 -14 -48 -4 -5 -17 -46
-29 -90 -28 -106 -48 -150 -75 -164 -12 -7 -53 -13 -91 -14 l-70 -2 -51 51
c-55 56 -118 100 -168 117 -17 5 -43 18 -58 29 -14 10 -38 18 -53 18 -14 0
-39 7 -54 15 -16 8 -64 22 -107 31 -44 8 -83 19 -89 24 -5 4 -33 10 -62 14
-28 4 -64 13 -80 21 -15 8 -42 15 -59 15 -17 0 -58 8 -90 19 -33 10 -79 22
-104 25 -25 4 -71 16 -103 27 -31 10 -70 19 -85 19 -15 0 -84 18 -153 40 -117
37 -232 63 -339 75 -25 3 -76 14 -115 25 -217 59 -259 65 -480 64 -147 0 -238
-6 -305 -17 -52 -9 -158 -19 -235 -21 -160 -5 -193 -16 -320 -107 -38 -27 -84
-56 -101 -63 -17 -8 -35 -19 -38 -25 -4 -6 -14 -11 -22 -11 -9 0 -31 -12 -50
-26 -26 -20 -34 -34 -34 -59 0 -19 -8 -39 -20 -50 -23 -20 -27 -77 -7 -92 6
-6 38 -20 69 -33 56 -23 59 -23 175 -9 65 7 127 13 138 11 19 -2 36 -19 77
-74 15 -20 19 -21 28 -8 5 8 10 28 10 45 0 23 14 42 64 90 35 33 73 79 85 101
30 61 68 76 151 58 36 -8 119 -18 185 -24 129 -11 174 -18 190 -30 6 -5 32
-11 60 -16 27 -4 64 -13 82 -21 18 -7 59 -17 91 -22 31 -5 77 -16 102 -24 119
-43 186 -57 267 -57 83 0 84 0 146 -45 90 -66 385 -205 434 -205 7 0 18 -9 25
-19 8 -10 30 -29 51 -41 28 -17 37 -28 37 -49 0 -15 -5 -32 -11 -38 -10 -10
-20 -28 -77 -135 -19 -35 -39 -70 -46 -78 -21 -26 -66 -121 -66 -140 0 -17
-42 -86 -65 -105 -7 -5 -36 -49 -65 -97 -29 -48 -59 -93 -66 -99 -8 -6 -14
-17 -14 -24 0 -7 -19 -27 -43 -46 -24 -18 -70 -68 -102 -112 -33 -43 -79 -100
-101 -125 -23 -26 -76 -90 -118 -142 -43 -52 -109 -128 -149 -170 -84 -89
-103 -114 -142 -195 -16 -33 -42 -73 -58 -90 -16 -16 -37 -46 -47 -66 -10 -19
-26 -41 -34 -48 -9 -8 -16 -18 -16 -23 0 -5 -15 -28 -33 -51 -41 -52 -75 -116
-94 -182 -8 -27 -20 -56 -26 -63 -6 -7 -12 -81 -15 -170 -5 -156 -5 -158 -42
-237 -20 -44 -66 -117 -101 -162 -35 -46 -79 -102 -96 -125 -18 -24 -45 -57
-60 -75 -16 -17 -36 -44 -45 -60 -10 -15 -36 -53 -58 -83 -22 -30 -50 -71 -61
-90 -11 -19 -31 -53 -44 -75 -13 -22 -30 -53 -38 -70 -8 -16 -38 -52 -67 -80
-29 -27 -62 -60 -73 -72 -11 -13 -25 -23 -30 -23 -6 0 -24 -10 -41 -23 -28
-21 -60 -38 -161 -82 -16 -8 -61 -26 -100 -40 -38 -15 -131 -57 -205 -94
l-135 -67 -88 -109 c-176 -220 -483 -506 -625 -581 -25 -13 -54 -32 -63 -40
-11 -9 -38 -17 -68 -17 -39 -2 -54 3 -73 21 -31 29 -64 28 -83 -2 -27 -41 -64
-50 -126 -31 -30 9 -69 24 -87 33 -33 16 -33 16 -64 -19 l-30 -34 7 -185 c19
-549 25 -670 34 -725 11 -68 50 -181 74 -219 10 -14 17 -30 17 -36 0 -5 16
-28 36 -50 33 -36 41 -40 85 -40 43 0 51 4 75 35 22 29 25 41 19 72 -3 21 -9
68 -12 105 -4 57 -1 73 16 102 12 18 21 46 21 61 0 16 11 43 26 62 14 18 30
48 37 67 14 40 80 96 113 96 19 0 24 7 30 36 4 20 20 51 35 69 25 28 28 37 19
60 -5 14 -10 35 -10 46 0 21 290 319 311 319 6 0 26 12 44 28 18 15 58 43 90
62 32 19 73 45 91 56 17 12 42 25 54 29 13 4 44 20 69 35 25 16 73 43 106 60
33 17 82 46 110 64 27 18 61 40 75 49 21 14 102 70 249 170 14 9 42 24 61 32
19 9 47 22 62 30 14 8 34 15 45 15 10 1 36 9 58 20 22 11 48 19 58 20 21 0
176 48 197 61 8 5 29 16 45 23 17 8 59 41 95 73 36 33 72 62 80 66 8 4 40 26
72 50 193 144 260 196 314 243 33 29 73 56 89 60 27 7 27 6 21 -32 -3 -21 -10
-136 -15 -254 -6 -127 -16 -240 -25 -275 -9 -33 -16 -80 -16 -105 0 -25 -7
-56 -15 -70 -29 -52 -10 -199 39 -305 8 -16 25 -56 38 -88 35 -89 95 -112 149
-58 29 29 29 30 29 151 l0 122 40 68 c46 79 97 123 191 169 56 26 68 36 73 62
4 22 15 34 40 44 38 16 47 37 32 76 -12 35 6 64 65 104 24 16 67 50 95 76 27
26 66 54 85 64 19 10 42 24 52 33 21 19 49 35 102 60 22 11 46 27 54 36 7 9
20 16 28 16 8 0 33 10 56 22 69 36 90 45 132 58 22 7 51 18 65 25 49 25 115
53 140 60 31 9 209 97 310 154 8 4 35 17 60 29 49 22 160 76 200 98 14 7 32
15 40 18 15 6 55 30 127 78 62 41 131 128 154 194 l20 59 -22 95 -22 95 -90
88 c-49 48 -94 87 -99 87 -10 0 -75 45 -93 65 -5 5 -44 32 -85 59 -41 28 -80
55 -85 62 -29 34 -295 176 -372 198 -24 8 -40 56 -26 80 18 33 205 212 297
285 18 14 48 44 67 66 19 22 52 56 74 77 108 100 213 207 245 247 64 82 145
164 175 178 17 8 46 23 65 34 46 25 82 18 181 -37 44 -24 84 -44 90 -44 6 0
22 -9 36 -20 14 -11 36 -20 48 -20 12 0 48 -9 81 -20 32 -11 73 -20 90 -20 18
0 76 -9 129 -20 53 -11 120 -20 147 -20 28 0 78 -8 112 -17 43 -12 102 -17
201 -17 l141 -1 32 33 c18 18 32 40 32 48 0 8 9 32 19 52 11 20 32 64 47 97
15 33 36 71 46 84 10 13 18 32 18 42 0 9 6 24 14 32 8 8 22 29 30 48 9 19 19
41 24 49 27 47 51 99 60 130 6 19 25 73 42 120 17 47 35 103 39 125 4 22 15
63 23 90 16 53 42 170 59 270 12 73 3 157 -22 207 -10 20 -19 42 -19 49 0 6
-9 22 -20 36 -11 14 -20 35 -20 47 0 11 -9 32 -20 46 -11 14 -20 32 -20 41 0
9 -8 27 -18 40 -10 13 -21 32 -25 42 -4 10 -17 17 -34 17 -19 0 -40 13 -72 48
-43 46 -73 61 -130 65 -24 2 -27 -2 -54 -65 -14 -31 -15 -51 -6 -125 6 -48 15
-108 20 -133 25 -110 25 -110 -14 -110 -20 0 -39 5 -42 10 -10 17 -41 11 -61
-11 -18 -20 -18 -21 1 -35 10 -8 23 -14 28 -14 5 0 60 -52 123 -116 127 -129
133 -142 91 -220 -12 -23 -40 -77 -61 -120 -21 -44 -44 -86 -51 -94 -7 -8 -16
-27 -21 -42 -5 -15 -61 -80 -124 -145 -64 -65 -122 -133 -129 -150 -17 -42
-49 -43 -117 -7 -85 46 -238 94 -300 94 -17 0 -61 9 -98 21 -54 17 -79 33
-127 79 -71 67 -75 92 -19 123 19 10 47 30 62 44 22 21 32 24 66 18 39 -6 40
-5 50 27 6 18 14 58 17 88 9 65 17 83 60 127 18 19 38 48 45 66 47 126 57 141
117 173 77 42 143 117 143 164 0 19 -9 49 -20 65 -11 17 -20 42 -20 56 0 15
-8 37 -18 50 -10 13 -24 38 -31 55 -7 17 -24 37 -39 45 -38 19 -73 50 -82 75
-6 16 -21 23 -57 29 -38 5 -55 15 -84 46 -32 35 -41 39 -83 39 -34 0 -56 7
-79 24 -26 19 -43 24 -90 23 -32 -1 -63 -5 -70 -9z m-1792 -3508 c22 -5 99
-14 171 -19 72 -6 139 -13 148 -17 10 -4 16 -17 16 -35 0 -25 -27 -56 -164
-193 -90 -90 -181 -176 -202 -190 -22 -15 -73 -55 -114 -91 -52 -45 -91 -70
-128 -81 -29 -9 -55 -21 -58 -25 -10 -17 -73 -10 -83 9 -9 16 -24 19 -100 21
-91 1 -111 6 -166 39 -52 32 -45 51 57 153 52 52 110 112 130 134 20 22 63 66
95 98 57 56 60 57 115 57 60 0 72 8 84 55 4 17 18 47 32 68 24 37 26 37 76 32
28 -4 69 -10 91 -15z"/>
</g>
</svg>
